<svg width="178" height="54" viewBox="0 0 178 54" fill="none" xmlns="http://www.w3.org/2000/svg">
<circle cx="25" cy="28.8979" r="19.5" stroke="black"/>
<mask id="mask0_49_371" style="mask-type:alpha" maskUnits="userSpaceOnUse" x="5" y="8" width="40" height="41">
<g clip-path="url(#clip0_49_371)">
<path d="M5 28.8979C5 17.8523 13.9543 8.89795 25 8.89795V8.89795C36.0457 8.89795 45 17.8523 45 28.8979V28.8979C45 39.9436 36.0457 48.8979 25 48.8979V48.8979C13.9543 48.8979 5 39.9436 5 28.8979V28.8979Z" fill="white"/>
<circle cx="25" cy="28.8979" r="34.5" fill="white" stroke="white" stroke-width="29"/>
</g>
<path d="M25 35.8979C21.134 35.8979 18 32.7639 18 28.8979H-8C-8 47.1233 6.7746 61.8979 25 61.8979V35.8979ZM32 28.8979C32 32.7639 28.866 35.8979 25 35.8979V61.8979C43.2254 61.8979 58 47.1233 58 28.8979H32ZM25 21.8979C28.866 21.8979 32 25.032 32 28.8979H58C58 10.6726 43.2254 -4.10205 25 -4.10205V21.8979ZM25 -4.10205C6.7746 -4.10205 -8 10.6726 -8 28.8979H18C18 25.032 21.134 21.8979 25 21.8979V-4.10205Z" fill="white"/>
</mask>
<g mask="url(#mask0_49_371)">
<path d="M4.11987 12.7458H47.7562V19.7771L18.0332 40.3382V40.7004H47.7562V48.6052H4.11987V41.5314L33.8642 20.9916V20.6081H4.11987V12.7458Z" fill="black"/>
<path d="M1 7.89795H44.6364V14.9292L14.9134 35.4903V35.8525H44.6364V43.7573H1V36.6835L30.7443 16.1437V15.7602H1V7.89795Z" fill="#DB00FF"/>
</g>
<path d="M69.8504 43H57.8504V40.08L61.2904 38.8V18.68L57.8504 17.36V14.44H69.8504V17.36L66.4104 18.68V38.8L69.8504 40.08V43ZM82.8951 39.36C83.5351 39.36 84.1485 39.3067 84.7351 39.2C85.3218 39.0667 85.8685 38.92 86.3751 38.76V42.52C85.8418 42.76 85.1485 42.96 84.2951 43.12C83.4418 43.3067 82.5485 43.4 81.6151 43.4C80.3885 43.4 79.2685 43.2 78.2551 42.8C77.2685 42.3733 76.4685 41.6533 75.8551 40.64C75.2685 39.6267 74.9751 38.2133 74.9751 36.4V25.12H72.0551V22.92L75.2551 21.16L76.8551 16.56H80.0151V21.32H86.1751V25.12H80.0151V36.36C80.0151 37.3733 80.2818 38.1333 80.8151 38.64C81.3485 39.12 82.0418 39.36 82.8951 39.36ZM110.105 32.12C110.105 33.9333 109.865 35.5333 109.385 36.92C108.905 38.3067 108.212 39.4933 107.305 40.48C106.425 41.44 105.332 42.1733 104.025 42.68C102.745 43.16 101.318 43.4 99.7451 43.4C98.2518 43.4 96.8785 43.16 95.6251 42.68C94.3718 42.1733 93.2785 41.44 92.3451 40.48C91.4385 39.4933 90.7318 38.3067 90.2251 36.92C89.7185 35.5333 89.4651 33.9333 89.4651 32.12C89.4651 29.72 89.8785 27.6933 90.7051 26.04C91.5318 24.36 92.7185 23.0933 94.2651 22.24C95.8385 21.36 97.6918 20.92 99.8251 20.92C101.852 20.92 103.625 21.36 105.145 22.24C106.692 23.0933 107.905 24.36 108.785 26.04C109.665 27.6933 110.105 29.72 110.105 32.12ZM94.6251 32.12C94.6251 33.64 94.7985 34.9467 95.1451 36.04C95.5185 37.1067 96.0785 37.92 96.8251 38.48C97.5985 39.04 98.5851 39.32 99.7851 39.32C101.012 39.32 101.998 39.04 102.745 38.48C103.518 37.92 104.078 37.1067 104.425 36.04C104.772 34.9467 104.945 33.64 104.945 32.12C104.945 30.5733 104.758 29.28 104.385 28.24C104.038 27.1733 103.478 26.3733 102.705 25.84C101.958 25.28 100.985 25 99.7851 25C97.9718 25 96.6518 25.6133 95.8251 26.84C95.0251 28.0667 94.6251 29.8267 94.6251 32.12ZM140.155 20.92C142.609 20.92 144.449 21.5467 145.675 22.8C146.929 24.0533 147.555 26.08 147.555 28.88V43H142.515V29.84C142.515 28.24 142.222 27.04 141.635 26.24C141.049 25.4133 140.115 25 138.835 25C137.075 25 135.822 25.5733 135.075 26.72C134.329 27.8667 133.955 29.5333 133.955 31.72V43H128.915V29.84C128.915 28.7733 128.782 27.88 128.515 27.16C128.249 26.44 127.835 25.9067 127.275 25.56C126.742 25.1867 126.049 25 125.195 25C123.995 25 123.035 25.2933 122.315 25.88C121.595 26.44 121.089 27.2667 120.795 28.36C120.502 29.4533 120.355 30.8 120.355 32.4V43H115.315V21.32H119.195L119.915 24.16H120.195C120.649 23.4133 121.195 22.8 121.835 22.32C122.502 21.84 123.235 21.4933 124.035 21.28C124.862 21.04 125.689 20.92 126.515 20.92C128.142 20.92 129.515 21.2 130.635 21.76C131.755 22.2933 132.595 23.1333 133.155 24.28H133.555C134.222 23.1067 135.155 22.2533 136.355 21.72C137.582 21.1867 138.849 20.92 140.155 20.92ZM162.51 20.92C165.31 20.92 167.43 21.5333 168.87 22.76C170.337 23.96 171.07 25.8533 171.07 28.44V43H167.51L166.51 40H166.35C165.737 40.7733 165.097 41.4267 164.43 41.96C163.79 42.4667 163.043 42.8267 162.19 43.04C161.363 43.28 160.35 43.4 159.15 43.4C157.87 43.4 156.71 43.16 155.67 42.68C154.657 42.2 153.857 41.4667 153.27 40.48C152.683 39.4667 152.39 38.2 152.39 36.68C152.39 34.44 153.203 32.76 154.83 31.64C156.483 30.4933 158.977 29.8667 162.31 29.76L166.07 29.64V28.56C166.07 27.1733 165.737 26.1867 165.07 25.6C164.403 25.0133 163.47 24.72 162.27 24.72C161.177 24.72 160.123 24.88 159.11 25.2C158.097 25.52 157.11 25.8933 156.15 26.32L154.55 22.8C155.617 22.24 156.83 21.7867 158.19 21.44C159.577 21.0933 161.017 20.92 162.51 20.92ZM163.43 32.84C161.217 32.92 159.683 33.3067 158.83 34C157.977 34.6667 157.55 35.5733 157.55 36.72C157.55 37.7333 157.857 38.4667 158.47 38.92C159.083 39.3733 159.87 39.6 160.83 39.6C162.297 39.6 163.537 39.1867 164.55 38.36C165.563 37.5067 166.07 36.2533 166.07 34.6V32.76L163.43 32.84Z" fill="black"/>
<defs>
<clipPath id="clip0_49_371">
<path d="M5 28.8979C5 17.8523 13.9543 8.89795 25 8.89795V8.89795C36.0457 8.89795 45 17.8523 45 28.8979V28.8979C45 39.9436 36.0457 48.8979 25 48.8979V48.8979C13.9543 48.8979 5 39.9436 5 28.8979V28.8979Z" fill="white"/>
</clipPath>
</defs>
</svg>
